<svg viewBox="0 0 1320 1213" class="exp-map-svg" xmlns="http://www.w3.org/2000/svg" preserveAspectRatio="xMidYMid meet" aria-hidden="true"><defs><pattern id="ohzDots" width="10" height="10" patternUnits="userSpaceOnUse"><circle cx="2.6" cy="2.6" r="1.85" fill="#808080"/></pattern><clipPath id="ohzEuClip"><path d="M69 58L268 82L417 134L556 105L605 75L665 58L725 70L794 99L913 117L988 104L1052 312L1012 437L988 498L903 403L854 300L819 247L799 312L834 414L923 554L1002 693L1052 803L1122 912L1191 1010L1251 1128L963 1128L665 1128L367 1128L69 1128L69 803L69 470L69 186Z"/></clipPath></defs><rect width="1320" height="1213" fill="url(#ohzDots)" clip-path="url(#ohzEuClip)"/></svg>