<svg width="106" height="106" viewBox="0 0 106 106" fill="none" xmlns="http://www.w3.org/2000/svg">
<circle cx="53" cy="53" r="26.0369" stroke="white" stroke-width="1.92616"/>
<path d="M51.4715 67.911L47.9776 55.7799C47.7115 54.856 48.4052 53.9349 49.3667 53.9355L56.3693 53.9397C57.3307 53.9403 58.0234 54.8623 57.7561 55.7859L54.2474 67.9127C53.8447 69.3044 51.8725 69.3032 51.4715 67.911Z" stroke="white" stroke-width="0.963082"/>
<path d="M51.0674 38.9839C51.6043 37.1283 54.2339 37.1299 54.7686 38.9861L58.2625 51.1172C58.6173 52.349 57.6923 53.5773 56.4104 53.5765L49.4077 53.5722C48.1258 53.5714 47.2024 52.3421 47.5586 51.1107L51.0674 38.9839Z" fill="white"/>
<path d="M51.0406 30.8831C51.0406 31.9469 51.903 32.8093 52.9668 32.8093C54.0306 32.8093 54.893 31.9469 54.893 30.8831H51.0406ZM51.0406 27.5123V30.8831H54.893V27.5123H51.0406Z" fill="white"/>
<path d="M54.893 75.1846C54.893 74.1208 54.0306 73.2585 52.9668 73.2585C51.903 73.2585 51.0406 74.1208 51.0406 75.1846L54.893 75.1846ZM54.893 78.5554L54.893 75.1846L51.0406 75.1846L51.0406 78.5554L54.893 78.5554Z" fill="white"/>
<path d="M74 51.0738C72.9362 51.0738 72.0738 51.9362 72.0738 53C72.0738 54.0638 72.9362 54.9262 74 54.9262L74 51.0738ZM78 51.0738L74 51.0738L74 54.9262L78 54.9262L78 51.0738Z" fill="white"/>
<path d="M31 54.9262C32.0638 54.9262 32.9262 54.0638 32.9262 53C32.9262 51.9362 32.0638 51.0738 31 51.0738L31 54.9262ZM27 54.9262L31 54.9262L31 51.0738L27 51.0738L27 54.9262Z" fill="white"/>
<path d="M58.1799 20H55.1057L49.9642 12.2157V20H46.89V7.37978H49.9642L55.1057 15.2V7.37978L58.1799 7.37978V20Z" fill="white"/>
</svg>
